# xmcd database file
#
# Track frame offsets:
# 150
# 23820
# 38525
# 50455
# 63510
# 76445
# 93040
# 109102
# 120327
# 138192
#
# Disc length: 2011 seconds
#
# Revision: 0
# Processed by: cddbd v1.4PL0 Copyright (c) Steve Scherf et al.
# Submitted via: CD-Runner 2003.08
#
DISCID=7107d90a
DTITLE=B. B. King - My Kind Of Blues
DYEAR=2000
DGENRE=Blues
TTITLE0=You Done Lost Your Good Thing Now
TTITLE1=Mr. Pawnbroker
TTITLE2=Understand
TTITLE3=Someday Baby
TTITLE4=Driving Wheel
TTITLE5=Walking Dr. Bill
TTITLE6=My Own Fault, Darling
TTITLE7=Catfish Blues
TTITLE8=Hold That Train
TTITLE9=Please Set A Date
EXTD=
EXTT0=
EXTT1=
EXTT2=
EXTT3=
EXTT4=
EXTT5=
EXTT6=
EXTT7=
EXTT8=
EXTT9=
PLAYORDER=
